<svg width="100" height="124" viewBox="0 0 100 124" fill="none" xmlns="http://www.w3.org/2000/svg">
<path d="M44.4009 54.9931C45.0693 60.506 45.5706 66.186 46.2391 71.699C46.7405 76.2095 49.0802 80.386 50.7514 84.7295C51.7541 87.2354 52.7568 89.5742 53.7595 92.0801C54.0937 92.7483 56.9348 91.2448 56.7677 90.4095C56.0992 84.8965 55.5978 79.2166 54.9294 73.7036C54.428 69.1931 52.0883 65.0166 50.4171 60.6731C49.4144 58.1672 48.4117 55.8284 47.409 53.3225C47.2419 52.6543 44.0666 54.1578 44.4009 54.9931C46.4063 60.1719 48.5788 65.3507 50.5842 70.5295C52.2554 74.706 52.2555 79.5507 52.7568 84.0613C53.0911 86.7342 53.2582 89.2401 53.5924 91.913C54.5951 91.4119 55.5978 90.7436 56.6006 90.2425C54.5951 85.0636 52.4226 79.8848 50.4171 74.706C48.7459 70.5295 48.7459 65.6849 48.2446 61.1743C47.9103 58.5013 47.7432 55.9955 47.409 53.3225C47.409 52.8214 44.2337 53.9908 44.4009 54.9931Z" fill="#49818A"/>
<path d="M70.1374 67.1883C64.4553 67.8565 58.7732 68.3577 53.0911 69.0259C48.4118 69.5271 44.2338 71.8659 39.8886 73.5365C37.3818 74.5389 34.875 75.5412 32.3682 76.5436C32.034 76.7106 29.5272 78.3812 30.5299 78.2141C36.212 77.5459 41.8941 77.0447 47.5762 76.3765C52.2556 75.8753 56.4335 73.5365 60.7787 71.8659C63.2855 70.8636 65.7923 69.8612 68.2991 68.8589C68.8004 68.6918 70.1374 68.1907 70.3045 67.5224C70.4717 67.0212 69.9703 67.0212 69.4689 67.1883C64.2882 69.193 59.1075 71.3648 53.9267 73.3695C53.2583 73.7036 52.4227 73.8706 51.7542 74.2047C51.7542 74.2047 52.5898 74.0377 52.0884 74.0377C51.7542 74.0377 51.2528 74.2047 50.9186 74.2047C47.5762 74.5389 44.4009 74.873 41.0585 75.2071C38.3846 75.5412 35.8778 75.7083 33.2038 76.0424C32.5354 76.5436 32.034 77.2118 31.3655 77.713C36.5462 75.7083 41.727 73.5365 46.9077 71.5318C47.5762 71.1977 48.4118 71.0306 49.0803 70.6965C49.0803 70.6965 48.2446 70.8636 48.746 70.8636C49.0802 70.8636 49.5816 70.6965 49.9159 70.6965C53.2583 70.3624 56.4335 70.0283 59.7759 69.6942C62.4499 69.36 64.9567 69.193 67.6306 68.8589C68.4662 68.8589 69.3018 68.3577 69.8031 67.8565C70.1374 67.8565 70.973 67.0212 70.1374 67.1883Z" fill="#49818A"/>
<path d="M95.2055 62.6777C99.7177 81.5553 92.3644 101.936 76.1538 112.962C59.776 123.988 37.549 123.153 22.0068 111.292C6.63179 99.5976 -0.387219 79.0494 5.12774 60.3389C10.6427 41.2942 28.1903 27.5955 47.9104 26.9272C69.9703 25.9249 89.6905 41.4613 95.2055 62.6777C95.7068 64.5153 98.8821 63.1789 98.5479 61.6754C93.3671 41.4613 75.9867 26.259 55.0966 24.2543C34.3738 22.4166 14.1522 33.7766 4.96061 52.3201C-4.23099 71.0306 -0.387219 94.2517 14.3194 109.12C29.0259 123.821 51.7542 127.496 70.6388 118.976C92.3644 109.12 104.063 84.7294 98.5479 61.6754C98.0465 59.8377 94.8712 61.0071 95.2055 62.6777Z" fill="#49818A"/>
<path d="M87.0167 64.6824C90.6933 80.0518 85.0112 96.5906 71.8087 105.779C58.272 115.134 39.8888 114.466 26.8534 104.609C14.1523 95.087 8.47015 78.2142 12.8153 62.8448C17.1604 46.9743 31.6999 35.4472 48.4119 35.1131C66.4609 34.6119 82.5044 47.3084 87.0167 64.6824C87.518 66.353 90.5262 64.8495 90.1919 63.513C85.8468 46.6401 71.4745 34.1108 54.094 32.6072C37.0477 31.1037 20.1686 40.459 12.4811 55.8284C4.79353 71.3648 7.8017 90.5765 20.0015 102.772C32.2012 115.134 51.253 118.141 66.9622 110.958C84.8441 102.772 94.7042 82.7247 90.1919 63.513C89.8577 62.0095 86.6824 63.346 87.0167 64.6824Z" fill="#49818A"/>
<path d="M45.905 11.8919C46.9077 16.4025 45.4036 21.2472 41.5599 23.9202C37.7161 26.5931 32.3683 26.0919 28.6916 23.2519C25.015 20.4119 23.1767 15.4002 24.5136 10.7225C25.8506 6.37902 29.6944 3.20489 34.2066 2.87077C39.7216 2.87077 44.568 6.71313 45.905 11.8919C46.4064 13.7296 49.5816 12.3931 49.2474 10.8896C47.7433 5.2096 43.0639 1.03313 37.2147 0.364897C31.1984 -0.303336 25.1821 3.03785 22.5082 8.55078C19.8343 13.7296 20.837 20.2449 25.015 24.4213C29.193 28.7649 35.8778 29.6001 41.2256 27.0943C47.409 24.2543 50.9186 17.4049 49.4145 10.8896C48.746 9.05194 45.4036 10.3884 45.905 11.8919Z" fill="#49818A"/>
<path d="M41.0586 13.0612C41.7271 15.5671 40.7243 18.4071 38.7189 19.7436C36.7134 21.0801 33.8724 20.913 31.6999 19.4095C29.5273 17.7389 28.5246 14.8989 29.3602 12.226C29.6944 11.0565 30.3629 10.0542 31.3656 9.21889C31.6998 8.88478 32.2012 8.71773 32.5355 8.55067C33.2039 8.21655 33.8724 8.21655 34.5409 8.04949C37.549 8.04949 40.223 10.2213 41.0586 13.0612C41.5599 14.8989 44.7352 13.5624 44.2338 12.0589C43.2311 8.3836 40.223 5.71066 36.5463 5.37654C32.5355 5.04242 28.5246 7.21421 26.6863 10.7224C25.0151 14.0636 25.6836 18.2401 28.3575 20.913C31.1985 23.753 35.3765 24.0871 38.886 22.5836C42.8969 20.7459 45.2366 16.2354 44.2338 12.0589C43.8996 10.3883 40.5572 11.5577 41.0586 13.0612Z" fill="#49818A"/>
<path d="M40.7241 40.2918C41.3926 42.6306 41.8939 45.1365 42.5624 47.4753C42.7295 47.8094 42.7296 48.1435 42.7296 48.4776C42.8967 49.1459 46.0719 47.8094 45.7377 46.8071C45.0692 44.4682 44.5678 41.9623 43.8994 39.6235C43.8994 39.2894 43.7322 38.9553 43.7322 38.6212C43.5651 37.9529 40.3899 39.1224 40.7241 40.2918Z" fill="#49818A"/>
<path d="M84.5097 65.0164C82.17 65.6847 79.6631 66.1859 77.3235 66.8541C76.9892 66.8541 76.655 67.0211 76.3207 67.0211C75.6522 67.1882 74.6496 67.6894 74.4824 68.5247C74.3153 69.1929 75.1509 69.5271 75.6522 69.36C77.9919 68.6918 80.4988 68.1906 82.8385 67.5223C83.1727 67.5223 83.5069 67.3553 83.8412 67.3553C84.5096 67.1882 85.5124 66.687 85.6795 65.8517C86.0137 65.1835 85.1782 64.8494 84.5097 65.0164Z" fill="#49818A"/>
<path d="M58.9402 107.282C58.2717 104.943 57.7703 102.438 57.1018 100.099C57.1018 99.7646 56.9347 99.4305 56.9347 99.0963C56.9347 98.7622 56.4333 98.7622 56.2662 98.7622C55.932 98.7622 55.4306 98.9293 55.0964 99.0963C54.595 99.4305 53.7594 99.9316 53.9265 100.6C54.595 102.939 55.0964 105.445 55.7649 107.783C55.7649 108.117 55.932 108.452 55.932 108.786C55.932 109.12 56.4333 109.12 56.6005 109.12C56.9347 109.12 57.4361 108.953 57.7703 108.786C58.4388 108.619 59.1073 107.95 58.9402 107.282Z" fill="#49818A"/>
<path d="M14.9877 82.2235C17.3273 81.5552 19.8341 81.054 22.1738 80.3858C22.508 80.3858 22.8423 80.2188 23.1765 80.2188C23.845 80.0517 24.8477 79.5505 25.1819 78.8823C25.5162 78.2141 24.5135 78.2141 24.1792 78.3811C21.8396 79.0494 19.3327 79.5506 16.9931 80.2188C16.6588 80.2188 16.3246 80.3858 15.9904 80.3858C15.3219 80.5529 14.3192 81.0541 13.985 81.7223C13.6507 82.3905 14.4863 82.3905 14.9877 82.2235Z" fill="#49818A"/>
</svg>
