<svg width="54" height="60" viewBox="0 0 54 60" fill="none" xmlns="http://www.w3.org/2000/svg">
<g clip-path="url(#clip0_1068_1923)">
<path d="M26.967 60C41.8619 60 53.9339 47.8679 53.9339 33.033C53.9339 19.5195 43.9039 8.22823 30.9309 6.30631C31.2312 5.70571 31.4114 5.04504 31.4114 4.32432C31.4114 1.92192 29.4895 0 27.0871 0C24.6847 0 22.7628 1.92192 22.7628 4.32432C22.7628 5.04504 22.9429 5.70571 23.2432 6.30631C10.1502 8.10811 0 19.3994 0 33.033C0 47.9279 12.1321 60 26.967 60ZM27.0871 2.88288C27.8679 2.88288 28.5285 3.54354 28.5285 4.32432C28.5285 5.1051 27.8679 5.76577 27.0871 5.76577C26.3063 5.76577 25.6456 5.1051 25.6456 4.32432C25.6456 3.54354 26.3063 2.88288 27.0871 2.88288ZM26.967 8.94895C40.2402 8.94895 51.0511 19.7598 51.0511 33.033C51.0511 46.3063 40.2402 57.1171 26.967 57.1171C13.6937 57.1171 2.88288 46.3063 2.88288 33.033C2.88288 19.7598 13.6937 8.94895 26.967 8.94895Z" fill="white"/>
<path d="M26.967 53.0331C38.0181 53.0331 46.967 44.0841 46.967 33.0331C46.967 21.982 38.0181 13.0331 26.967 13.0331C15.916 13.0331 6.96704 21.982 6.96704 33.0331C7.0271 44.0841 15.9761 53.0331 26.967 53.0331ZM44.6848 33.0331C44.6848 42.7628 36.7568 50.7508 26.967 50.7508C17.2373 50.7508 9.24932 42.8229 9.24932 33.0331C9.24932 23.3033 17.1773 15.3154 26.967 15.3154C36.7568 15.3154 44.6848 23.3033 44.6848 33.0331Z" fill="white"/>
<path d="M18.1983 43.2434C18.3184 43.2434 18.4385 43.1833 18.4986 43.1232L26.0061 37.9581C26.3064 38.0181 26.6668 38.0782 26.9671 38.0782C29.7298 38.0782 32.0121 35.7959 32.0121 33.0331C32.0121 32.853 32.0121 32.6728 32.0121 32.5527L38.3785 22.5226C38.4986 22.2824 38.4986 21.9821 38.3184 21.8019C38.1382 21.6217 37.8379 21.5617 37.5977 21.7418L27.6277 28.0482C27.4475 28.0482 27.2073 27.9881 27.0271 27.9881C24.2644 27.9881 21.9821 30.2704 21.9821 33.0331C21.9821 33.5737 22.1022 34.1142 22.2824 34.6548L17.7779 42.4025C17.6578 42.6427 17.6578 42.9431 17.898 43.1232C17.9581 43.1833 18.0782 43.2434 18.1983 43.2434ZM29.1292 28.4686L36.0361 24.0842L31.6518 30.9911C31.1112 29.91 30.2103 28.9491 29.1292 28.4686ZM26.9671 30.871C28.1683 30.871 29.1292 31.8319 29.1292 33.0331C29.1292 34.2343 28.1683 35.1953 26.9671 35.1953C25.7659 35.1953 24.8049 34.2343 24.8049 33.0331C24.8049 31.8319 25.8259 30.871 26.9671 30.871ZM24.6848 37.5376L20.0001 40.7809L22.8229 35.916C23.3034 36.5767 23.9641 37.1172 24.6848 37.5376Z" fill="white"/>
<path d="M10.0901 33.033C10.0901 33.3333 10.3303 33.6336 10.6907 33.6336H14.955C15.2553 33.6336 15.5556 33.3933 15.5556 33.033C15.5556 32.7327 15.3153 32.4324 14.955 32.4324H10.6907C10.3303 32.4324 10.0901 32.7327 10.0901 33.033Z" fill="white"/>
<path d="M39.2793 33.6336H43.5436C43.8439 33.6336 44.1442 33.3933 44.1442 33.033C44.1442 32.7327 43.9039 32.4324 43.5436 32.4324H39.2793C38.979 32.4324 38.6787 32.6726 38.6787 33.033C38.7388 33.3333 38.979 33.6336 39.2793 33.6336Z" fill="white"/>
<path d="M27.0872 21.4414C27.3875 21.4414 27.6878 21.2012 27.6878 20.8408V16.5766C27.6878 16.2763 27.4475 15.976 27.0872 15.976C26.7268 15.976 26.4866 16.2162 26.4866 16.5766V20.8408C26.5466 21.1411 26.7869 21.4414 27.0872 21.4414Z" fill="white"/>
<path d="M27.0872 44.6245C26.7869 44.6245 26.4866 44.8648 26.4866 45.2251V49.4894C26.4866 49.7897 26.7268 50.09 27.0872 50.09C27.4475 50.09 27.6878 49.8497 27.6878 49.4894V45.2251C27.6878 44.9248 27.4475 44.6245 27.0872 44.6245Z" fill="white"/>
</g>
<defs>
<clipPath id="clip0_1068_1923">
<rect width="53.994" height="60" fill="white"/>
</clipPath>
</defs>
</svg>
