<svg width="56" height="56" viewBox="0 0 56 56" fill="none" xmlns="http://www.w3.org/2000/svg">
<path d="M34.3666 0.5H21.1023C16.7479 0.5 13.1973 4.05055 13.1973 8.40499V12.4915C5.82826 13.1614 0 19.3916 0 26.8946V41.0298C0 49.0018 6.49817 55.5 14.4702 55.5H41.6017C44.1474 55.5 46.4921 54.8301 48.5688 53.6912L48.6358 53.6242C53.0572 51.1456 56.0049 46.4562 56.0049 41.0298V26.8946C56.0049 19.1236 49.8417 12.7594 42.2046 12.4245V8.338C42.2716 4.05055 38.7211 0.5 34.3666 0.5ZM52.8563 41.0298C52.8563 44.1784 51.5164 47.0591 49.3727 49.1358V18.7887C51.5164 20.8654 52.8563 23.6791 52.8563 26.8946V41.0298ZM3.21559 26.8946C3.21559 23.6121 4.62241 20.6644 6.83313 18.6547V49.3368C4.62241 47.26 3.21559 44.3124 3.21559 41.0968V26.8946ZM34.3666 3.71559C36.9793 3.71559 39.056 5.79233 39.056 8.40499V12.4245H35.6395V10.1468C35.6395 7.6011 33.5627 5.45737 30.9501 5.45737H24.5189C21.9732 5.45737 19.8295 7.5341 19.8295 10.1468V12.4245H16.4129V8.40499C16.4129 5.79233 18.4896 3.71559 21.1023 3.71559H34.3666ZM46.2241 16.6449C46.2241 16.7119 46.2241 16.7789 46.2241 16.8459V51.2795C44.9513 51.8155 43.6115 52.1504 42.1376 52.2174V15.7071C43.6115 15.7741 44.9513 16.109 46.2241 16.6449ZM17.3508 52.2844V15.6401H38.922V52.2844H17.3508ZM10.0487 51.4135V16.9129C10.0487 16.7789 10.0487 16.7119 10.0487 16.578C11.3216 16.042 12.7284 15.7071 14.1352 15.7071V52.3514C12.7284 52.2844 11.3216 51.9495 10.0487 51.4135ZM32.4239 12.4245H23.0451V10.1468C23.0451 9.34287 23.715 8.67296 24.5189 8.67296H30.9501C31.754 8.67296 32.4239 9.34287 32.4239 10.1468V12.4245Z" fill="#FD4C5C"/>
</svg>
