<svg width="78" height="56" viewBox="0 0 78 56" fill="none" xmlns="http://www.w3.org/2000/svg">
<g clip-path="url(#clip0_1068_2418)">
<path d="M26.6295 48.1495C26.9519 48.6009 27.5967 48.8588 28.177 48.7298L39.7186 46.6665L47.9718 54.9842C48.2942 55.3066 48.6811 55.4356 49.0679 55.4356C49.2614 55.4356 49.3903 55.4356 49.5838 55.3711C50.1641 55.1777 50.5509 54.7263 50.6154 54.0815L52.2274 42.4754L62.7373 37.1882C63.2532 36.9303 63.5756 36.4145 63.5756 35.7697C63.5756 35.1894 63.2532 34.6736 62.6729 34.4156L52.0984 29.3219L50.293 17.7158C50.2285 17.1355 49.7772 16.6841 49.2614 16.4907C48.6811 16.2972 48.1008 16.4907 47.6494 16.8776L39.5251 25.3242L27.9191 23.4543C27.3387 23.3899 26.7584 23.5833 26.4361 24.0991C26.1137 24.5505 26.0492 25.1953 26.3071 25.7111L31.8522 36.0921L26.5005 46.5376C26.2426 47.0534 26.3071 47.6982 26.6295 48.1495ZM35.0117 36.7369C35.2696 36.2855 35.2696 35.7697 35.0117 35.3183L30.5627 27.0006L39.8475 28.5481C40.3634 28.6126 40.8792 28.4836 41.2016 28.0968L47.7139 21.2621L49.1324 30.6114C49.1969 31.1273 49.5193 31.5786 49.9706 31.772L58.4818 35.8987L50.0351 40.1542C49.5838 40.4121 49.2614 40.799 49.1969 41.3148L47.9073 50.6642L41.3305 43.894C41.0081 43.5716 40.6213 43.4426 40.2344 43.4426C40.1699 43.4426 40.041 43.4426 39.9765 43.4426L30.6916 45.119L35.0117 36.7369Z" fill="#00BB98"/>
<path d="M68.7983 9.52697L65.9612 12.8798L61.5767 12.493C60.9964 12.4285 60.4161 12.7509 60.0937 13.2022C59.7713 13.7181 59.7713 14.3628 60.0937 14.8142L62.4149 18.5539L60.674 22.5516C60.4161 23.0674 60.5451 23.7122 60.9319 24.1635C61.3188 24.6149 61.8991 24.8083 62.4794 24.6794L66.735 23.5832L70.0234 26.4848C70.2813 26.7427 70.6682 26.8716 71.055 26.8716C71.2485 26.8716 71.4419 26.8072 71.6353 26.7427C72.1512 26.5492 72.538 26.0334 72.6025 25.3886L72.9249 21.0041L76.6646 18.7474C77.1805 18.425 77.4384 17.9092 77.4384 17.3288C77.3739 16.7485 76.987 16.2327 76.4712 16.0393L72.4091 14.4273L71.4419 10.1718C71.3129 9.59145 70.8616 9.1401 70.2813 9.01114C69.7655 8.88219 69.1852 9.07562 68.7983 9.52697ZM69.8944 20.0369L69.7655 22.1002L68.218 20.7462C67.9601 20.4883 67.5732 20.3593 67.1863 20.3593C67.0574 20.3593 66.9284 20.3593 66.7995 20.4238L64.8006 20.9396L65.6389 19.0698C65.8323 18.6184 65.7678 18.0381 65.5099 17.6512L64.4138 15.9103L66.4771 16.1038C66.9929 16.1682 67.5087 15.9748 67.8311 15.5235L69.1207 13.9115L69.572 15.9103C69.701 16.4261 70.0234 16.813 70.4747 17.0065L72.4091 17.7802L70.6682 18.8118C70.2168 19.0698 69.9589 19.5211 69.8944 20.0369Z" fill="#00BB98"/>
<path d="M5.67408 17.0064L4.1266 24.4859C3.99764 25.0662 4.19107 25.6465 4.7069 26.0334C5.15825 26.4203 5.80303 26.4848 6.31886 26.2268L13.218 22.9384L19.8593 26.7427C20.1172 26.8716 20.3751 26.9361 20.633 26.9361C20.9554 26.9361 21.2133 26.8716 21.4713 26.6782C21.9871 26.3558 22.245 25.7755 22.116 25.1952L21.0844 17.6512L26.7585 12.5574C27.2098 12.1706 27.3388 11.5258 27.2098 11.01C27.0809 10.4297 26.565 10.0428 25.9847 9.91383L18.4408 8.55979L15.4103 1.4027C15.1524 0.88687 14.6366 0.5 14.0563 0.5C13.476 0.5 12.8956 0.822392 12.6377 1.33822L9.02695 8.04396L1.35403 8.8177C0.773724 8.88218 0.257898 9.26905 0.0644627 9.84935C-0.128972 10.4297 -1.55829e-05 11.01 0.451333 11.4613L5.67408 17.0064ZM11.2837 10.2362L13.7983 5.52931L15.9906 10.3652C16.184 10.8165 16.6354 11.1389 17.1512 11.2679L22.374 12.2351L18.4408 15.7814C18.0539 16.1038 17.8605 16.6196 17.925 17.1354L18.6342 22.4226L13.9918 19.779C13.7339 19.6501 13.476 19.5856 13.218 19.5856C12.9601 19.5856 12.7667 19.6501 12.5733 19.7145L7.80186 22.0358L8.89799 16.813C9.02695 16.2972 8.83351 15.7814 8.51112 15.459L4.83586 11.5903L10.1231 11.01C10.6389 10.9455 11.0903 10.6876 11.2837 10.2362Z" fill="#00BB98"/>
</g>
<defs>
<clipPath id="clip0_1068_2418">
<rect width="77.5029" height="55" fill="white" transform="translate(0 0.5)"/>
</clipPath>
</defs>
</svg>
