<svg width="67" height="70" viewBox="0 0 67 70" fill="none" xmlns="http://www.w3.org/2000/svg">
<g clip-path="url(#clip0_1068_2431)">
<path d="M8.70895 35.2716C8.52787 35.2716 8.40716 35.332 8.22608 35.3923C8.045 35.4527 4.00088 37.3239 2.73332 43.3599C1.4054 50.0598 1.22432 50.9049 1.22432 54.4661C0.74144 55.13 0.5 55.9147 0.5 56.8201C0.5 59.0534 2.25044 60.8643 4.4234 60.8643H12.2702V64.7876C12.2702 67.3831 14.9864 69.4354 18.4873 69.4354C21.9881 69.4354 24.7043 67.3831 24.7043 64.7876V60.8643H41.6655V64.7876C41.6655 67.3831 44.3817 69.4354 47.8826 69.4354C51.3834 69.4354 54.0996 67.3831 54.0996 64.7876V60.8643H62.369C64.5419 60.8643 66.2924 59.0534 66.2924 56.8201C66.2924 55.6733 65.8095 54.5868 65.0248 53.8625C64.9644 50.7841 64.723 49.6373 63.4554 43.3599C62.1879 37.2635 58.1438 35.4527 57.9627 35.3923C57.842 35.332 57.6609 35.2716 57.4798 35.2716H53.6771L53.315 32.6761H55.1861C55.9708 32.6761 56.6348 32.0122 56.6348 31.2275C56.6348 30.4428 55.9708 29.7789 55.1861 29.7789H53.0132L50.5988 13.7231C50.5384 13.1799 50.0555 12.7574 49.4519 12.7574H45.8303V1.47004C45.8303 0.98716 45.4682 0.625 44.9853 0.625H30.016C29.5331 0.625 29.171 0.98716 29.171 1.47004V5.99704H22.9539C22.471 5.99704 22.1089 6.3592 22.1089 6.84208V12.697H16.9179C16.3143 12.697 15.8314 13.1195 15.7711 13.6628L13.3567 30.0203H10.6405C9.97651 30.0203 9.49363 30.5635 9.49363 31.1671C9.49363 31.8311 10.0369 32.314 10.6405 32.314H12.9945L12.572 35.2113H8.70895V35.2716ZM23.7989 7.74748H37.6214V12.8177H23.7989V7.74748ZM44.1403 2.37544V13.1799H39.3718V6.90244C39.3718 6.41956 39.0097 6.0574 38.5268 6.0574H30.8611V2.37544H44.1403ZM48.4862 15.051L51.6852 36.5995C51.7456 37.1428 52.2285 37.5653 52.8321 37.5653H57.3591C58.023 37.9275 60.4374 39.5572 61.2825 43.7824C62.369 49.0941 62.6708 50.6031 62.7915 52.776C62.6708 52.776 62.6104 52.776 62.4897 52.776H4.4234C4.1216 52.776 3.8198 52.8364 3.518 52.8967C3.57836 50.6634 3.88016 49.2148 5.027 43.8427C5.9324 39.6175 8.28644 37.9878 8.95039 37.6257H13.4774C14.081 37.6257 14.5639 37.2031 14.6242 36.6599L17.8233 15.1114H48.4862V15.051ZM62.4293 58.5102H4.4234C3.518 58.5102 2.79368 57.7255 2.79368 56.8201C2.79368 55.8544 3.518 55.1301 4.4234 55.1301H62.4293C63.3347 55.1301 64.059 55.9147 64.059 56.8201C64.059 57.7255 63.3347 58.5102 62.4293 58.5102ZM47.9429 67.0813C45.6493 67.0813 44.0195 65.8741 44.0195 64.7876V60.8643H51.8663V64.7876C51.8663 65.8138 50.297 67.0813 47.9429 67.0813ZM18.5476 67.0813C16.2539 67.0813 14.6242 65.8741 14.6242 64.7876V60.8643H22.471V64.7876C22.471 65.8138 20.8413 67.0813 18.5476 67.0813Z" fill="#2B59FF"/>
<path d="M18.9098 35.9959H47.7015C48.0033 35.9959 48.3655 35.8752 48.5466 35.6337C48.788 35.3923 48.8484 35.0905 48.8484 34.7283L47.0979 18.9744C47.0376 18.3708 46.5547 17.9482 45.9511 17.9482H20.5999C19.9963 17.9482 19.5134 18.3708 19.4531 18.9744L17.7026 34.7283C17.7026 35.0301 17.8234 35.3923 18.0044 35.6337C18.2459 35.8752 18.5477 35.9959 18.9098 35.9959ZM32.853 23.6221H34.6034H37.7421V24.8293H29.6539V23.6221H32.853ZM33.9998 22.4752H33.4566V20.6041H33.9998V22.4752ZM32.3097 20.2419V22.4752H29.1107C28.8089 22.4752 28.5071 22.7167 28.5071 23.0788V25.4329C28.5071 25.7347 28.7485 26.0365 29.1107 26.0365H38.4061C38.7079 26.0365 39.0097 25.795 39.0097 25.4329V23.0788C39.0097 22.777 38.7683 22.4752 38.4061 22.4752H35.2674V20.2419H45.0457L46.5547 33.7022H20.1774L21.6864 20.2419H32.3097Z" fill="#2B59FF"/>
<path d="M43.8384 44.9291C43.8384 48.1282 46.4339 50.784 49.6933 50.784C52.8924 50.784 55.5482 48.1886 55.5482 44.9291C55.5482 41.7301 52.9527 39.0742 49.6933 39.0742C46.4339 39.1346 43.8384 41.7301 43.8384 44.9291ZM49.6933 41.4283C51.6248 41.4283 53.1942 42.9976 53.1942 44.9291C53.1942 46.8607 51.6248 48.43 49.6933 48.43C47.7618 48.43 46.1924 46.8607 46.1924 44.9291C46.1321 42.9976 47.7014 41.4283 49.6933 41.4283Z" fill="#2B59FF"/>
<path d="M17.944 39.1348C14.7449 39.1348 12.0891 41.7302 12.0891 44.9897C12.0891 48.1888 14.6846 50.8446 17.944 50.8446C21.1431 50.8446 23.7989 48.2491 23.7989 44.9897C23.7989 41.7302 21.2035 39.1348 17.944 39.1348ZM17.944 48.4906C16.0125 48.4906 14.4432 46.9212 14.4432 44.9897C14.4432 43.0582 16.0125 41.4888 17.944 41.4888C19.8755 41.4888 21.4449 43.0582 21.4449 44.9897C21.5053 46.9212 19.8755 48.4906 17.944 48.4906Z" fill="#2B59FF"/>
</g>
<defs>
<clipPath id="clip0_1068_2431">
<rect width="65.9131" height="68.75" fill="white" transform="translate(0.5 0.625)"/>
</clipPath>
</defs>
</svg>
