<svg width="53" height="60" viewBox="0 0 53 60" fill="none" xmlns="http://www.w3.org/2000/svg">
<path d="M32.1764 36.8045L50.9092 46.5565C51.4602 46.832 52.1213 46.7218 52.507 46.2811C52.8927 45.8403 52.9478 45.1791 52.6172 44.6833L48.2646 38.2921C48.3748 38.1268 48.485 38.0166 48.5401 37.8513L49.4767 36.0882C49.8073 35.4271 49.8624 34.7108 49.642 33.9946C49.4216 33.2783 48.9257 32.7273 48.2646 32.3968C47.6034 32.0662 46.8872 32.0111 46.1709 32.2315C45.5648 32.3968 45.069 32.7824 44.7384 33.2783L42.7549 30.3031L43.5263 28.8155C43.8569 28.1543 43.912 27.4381 43.6916 26.7218C43.4712 26.0056 42.9753 25.4546 42.3142 25.124C41.653 24.7934 40.9367 24.7384 40.2205 24.9587C39.8899 25.0689 39.6144 25.2342 39.339 25.3995L38.7329 24.5731C43.8018 14.1047 47.1076 2.20392 43.4161 0.275542C39.6695 -1.65283 31.2949 7.76866 25.5648 18.0166H24.1323C24.1874 17.6309 24.1323 17.2452 24.0221 16.8596C23.8018 16.1433 23.3059 15.5923 22.6447 15.2618C21.9836 14.9312 21.2673 14.8761 20.5511 15.0965C19.8348 15.3169 19.2839 15.8127 18.9533 16.4739L18.0717 18.1819L14.6558 18.237C15.2618 16.9147 14.766 15.3169 13.4436 14.6006C12.7825 14.27 12.0662 14.2149 11.35 14.4353C10.6337 14.6557 10.0828 15.1516 9.75218 15.8127L8.81554 17.4656C8.70535 17.686 8.65025 17.9615 8.59515 18.1819L1.32243 18.237C0.716364 18.237 0.1654 18.6777 0.0552074 19.2287C-0.110082 19.8348 0.1654 20.4408 0.716364 20.7163L19.4491 30.4684C17.7412 34.6006 17.08 38.6227 16.529 41.8733C16.3637 42.9753 16.1434 44.0772 15.9781 45.0138L6.17091 48.0992C5.50975 48.3196 5.12408 48.9257 5.23427 49.5868C5.34446 50.248 5.95052 50.6888 6.61168 50.6888C6.72187 50.6888 15.9781 50.3031 23.4712 59.5593C23.7467 59.8899 24.1323 60.0552 24.518 60.0552C24.7384 60.0552 24.9588 60.0001 25.1241 59.8899C25.675 59.6144 25.9505 58.9532 25.7852 58.3472L22.6998 48.54C23.0304 48.1543 23.4161 47.7687 23.8018 47.3279C26.1709 44.6833 29.4216 41.2122 32.1764 36.8045ZM12.3968 48.8706L17.4657 47.2728C17.9064 47.1075 18.237 46.7769 18.3472 46.3361C18.6227 45.124 18.8431 43.7466 19.1186 42.3141C19.7246 38.7328 20.3858 34.6557 22.3142 30.4133C22.5896 29.7521 22.3693 29.0359 21.7081 28.7053L6.61168 20.8265L9.4767 20.7714C9.64198 20.9367 9.80727 21.0469 10.0277 21.1571C10.4133 21.3775 10.8541 21.4877 11.2949 21.4877C11.5704 21.4877 11.8458 21.4326 12.1213 21.3775C12.507 21.2673 12.8376 21.0469 13.1682 20.7714L18.1268 20.7163C18.4023 21.2122 18.788 21.653 19.2839 21.9284C19.6695 22.1488 20.1103 22.259 20.5511 22.259C20.8266 22.259 21.102 22.2039 21.3775 22.1488C22.0938 21.9284 22.6447 21.4326 22.9753 20.7714L23.0304 20.7163L26.4464 20.6612C26.9423 20.6612 27.383 20.3857 27.6034 20.0001C33.8844 8.42981 40.5511 2.75488 42.2591 2.64469C42.9753 3.967 42.204 11.7356 36.1434 24.0772C35.923 24.518 35.9781 25.0138 36.2536 25.3995L37.9064 27.8238L37.6861 28.0992C37.3555 28.7604 37.3004 29.4766 37.5208 30.1929C37.7412 30.9092 38.237 31.4601 38.8982 31.7907C39.2839 32.0111 39.7246 32.1213 40.1654 32.1213C40.3858 32.1213 40.5511 32.0662 40.7715 32.0662L43.4161 35.8678C43.3059 36.3637 43.3059 36.8596 43.4712 37.3554C43.6916 38.0717 44.1874 38.6226 44.8486 38.9532C45.1241 39.1185 45.4547 39.1736 45.7852 39.2287L47.4932 41.708L32.2866 33.8844C31.6806 33.5538 30.9092 33.7742 30.5235 34.3802C27.7687 39.0083 24.4629 42.6447 21.8183 45.5097C21.2122 46.1158 20.7164 46.7218 20.2205 47.2728C19.8899 47.6034 19.8348 48.0992 19.945 48.54L21.5979 53.7742C18.3472 51.1295 15.0965 49.6419 12.3968 48.8706ZM10.7439 18.4023L11.6806 16.5841C11.7907 16.3637 12.0111 16.2535 12.2315 16.2535C12.3417 16.2535 12.4519 16.2535 12.507 16.3086C12.8376 16.4739 12.9478 16.8596 12.7825 17.1901L11.8458 18.9532C11.7907 19.1185 11.6255 19.2287 11.4602 19.2838C11.2949 19.3389 11.1296 19.3389 10.9643 19.2287C10.799 19.1736 10.6888 19.0083 10.6337 18.843C10.6337 18.7328 10.6337 18.5676 10.7439 18.4023ZM20.8817 17.3554C20.9918 17.135 21.2122 17.0249 21.4326 17.0249C21.5428 17.0249 21.653 17.0249 21.7081 17.08C21.8734 17.135 21.9836 17.3003 22.0387 17.4656C22.0938 17.6309 22.0938 17.7962 21.9836 17.9615L21.0469 19.7246C20.9918 19.8899 20.8266 20.0001 20.6613 20.0552C20.496 20.1103 20.3307 20.1103 20.1654 20.0001C19.8348 19.8348 19.7246 19.4491 19.8899 19.1185L20.8817 17.3554ZM40.8817 26.9422C40.9367 26.9422 40.9918 26.8871 41.102 26.8871C41.2122 26.8871 41.3224 26.8871 41.3775 26.9422C41.5428 26.9973 41.653 27.1626 41.7081 27.3279C41.7632 27.4932 41.7632 27.6585 41.653 27.8238L40.7164 29.5868C40.5511 29.9174 40.1654 30.0276 39.8348 29.8623C39.5042 29.697 39.3941 29.3114 39.5593 28.9808L40.496 27.2177C40.6062 27.1075 40.7164 26.9973 40.8817 26.9422ZM45.5098 36.1984L46.4464 34.4353C46.5015 34.27 46.6668 34.1598 46.8321 34.1047C46.9974 34.0496 47.1626 34.0496 47.3279 34.1598C47.4932 34.2149 47.6034 34.3802 47.6585 34.5455C47.7136 34.7108 47.7136 34.8761 47.6034 35.0414L46.6668 36.8596C46.6117 37.0249 46.4464 37.135 46.2811 37.1901C46.1158 37.2452 45.9505 37.2452 45.7852 37.135C45.6199 37.08 45.5098 36.9147 45.4547 36.7494C45.3996 36.529 45.3996 36.3637 45.5098 36.1984Z" fill="white"/>
</svg>
