<svg width="147" height="110" viewBox="0 0 147 110" fill="none" xmlns="http://www.w3.org/2000/svg">
<path opacity="0.05" d="M113.589 66.1323C115.223 66.1323 116.792 65.8824 118.352 65.6547C117.847 67.3594 117.327 69.0935 116.491 70.6513C115.656 72.9145 114.351 74.8764 113.054 76.853C111.97 78.9913 110.057 80.4389 108.65 82.2685C107.177 84.0468 105.169 85.2298 103.579 86.7068C102.018 88.2498 99.9734 89.0214 98.3465 90.1089C96.6464 91.0862 95.1661 92.1663 93.5832 92.6807L89.6333 94.312L86.1597 95.7595L89.7139 110L94.0888 108.942C95.4885 108.589 97.196 108.178 99.1379 107.685C101.124 107.318 103.242 106.311 105.601 105.393C107.932 104.349 110.629 103.644 113.135 101.969C115.656 100.367 118.565 99.0294 121.13 96.8838C123.614 94.672 126.611 92.7542 128.824 89.9399C131.243 87.3093 133.632 84.5464 135.486 81.4015C137.633 78.4035 139.091 75.1116 140.63 71.8564C142.022 68.6012 143.144 65.2725 144.06 62.0394C145.797 55.5585 146.573 49.4008 146.874 44.1323C147.123 38.8564 146.976 34.4696 146.669 31.2953C146.559 29.7963 146.353 28.3414 146.207 27.3347L146.024 26.1002L145.833 26.1443C144.53 20.0393 141.529 14.4291 137.179 9.96262C132.828 5.49612 127.306 2.35585 121.25 0.905106C115.194 -0.545639 108.852 -0.247597 102.958 1.76476C97.0636 3.77711 91.8581 7.42156 87.9433 12.2765C84.0286 17.1314 81.5646 22.9985 80.8364 29.1989C80.1082 35.3993 81.1455 41.6798 83.8284 47.3138C86.5113 52.9478 90.73 57.7051 95.9967 61.0353C101.263 64.3656 107.363 66.1327 113.589 66.1323ZM32.9791 66.1323C34.6133 66.1323 36.1815 65.8824 37.7424 65.6547C37.2367 67.3594 36.7164 69.0935 35.881 70.6513C35.0456 72.9145 33.7412 74.8764 32.4441 76.853C31.3595 78.9913 29.4469 80.4389 28.0399 82.2685C26.5669 84.0468 24.559 85.2298 22.9688 86.7068C21.4079 88.2498 19.3633 89.0214 17.7364 90.1089C16.0363 91.0862 14.556 92.1663 12.9731 92.6807L9.02322 94.312L5.54967 95.7595L9.10384 110L13.4788 108.942C14.8784 108.589 16.5859 108.178 18.5279 107.685C20.5138 107.318 22.6317 106.311 24.9913 105.393C27.3144 104.342 30.0185 103.644 32.5247 101.961C35.0456 100.359 37.9549 99.022 40.5198 96.8764C43.004 94.6647 46.0013 92.7468 48.2144 89.9399C50.6327 87.3093 53.0217 84.5464 54.8757 81.4015C57.0229 78.4035 58.4812 75.1116 60.0201 71.8564C61.4124 68.6012 62.5336 65.2725 63.4497 62.0394C65.1865 55.5585 65.9632 49.4008 66.2637 44.1323C66.5129 38.8564 66.3663 34.4696 66.0585 31.2953C65.9486 29.7963 65.7434 28.3414 65.5968 27.3347L65.4136 26.1002L65.2231 26.1443C63.9197 20.0393 60.9192 14.4291 56.5688 9.96262C52.2183 5.49612 46.6957 2.35585 40.6397 0.905106C34.5837 -0.545639 28.2418 -0.247597 22.3477 1.76476C16.4536 3.77711 11.248 7.42156 7.3333 12.2765C3.41855 17.1314 0.954544 22.9985 0.226334 29.1989C-0.501877 35.3993 0.535461 41.6798 3.21832 47.3138C5.9012 52.9478 10.12 57.7051 15.3866 61.0353C20.6533 64.3656 26.7526 66.1327 32.9791 66.1323Z" fill="#FD4C5C"/>
</svg>
