<svg width="50" height="60" viewBox="0 0 50 60" fill="none" xmlns="http://www.w3.org/2000/svg">
<path d="M15.827 44.9513C17.7081 44.9513 19.5892 44.9513 21.5351 44.9513C21.8594 44.9513 22.2486 44.6919 22.3135 44.3675C22.5081 43.0703 22.7675 41.773 23.0919 40.4757C23.2216 39.9567 22.8324 39.5027 22.3135 39.5027C20.4973 39.5027 18.7459 39.5027 16.9297 39.5027C16.6054 39.5027 16.281 39.7621 16.1513 40.0865C15.7621 41.3838 15.3729 42.6811 15.0486 43.9784C14.7892 44.9513 16.3459 45.3405 16.5405 44.3675C16.8648 43.0703 17.1892 41.773 17.6432 40.4757C17.3837 40.6703 17.1243 40.8648 16.8648 41.0594C18.681 41.0594 20.4324 41.0594 22.2486 41.0594C21.9892 40.7351 21.7297 40.4108 21.4702 40.0865C21.1459 41.3838 20.8865 42.6811 20.6919 43.9784C20.9513 43.7838 21.2108 43.5892 21.4702 43.3946C19.5892 43.3946 17.7081 43.3946 15.7621 43.3946C14.854 43.3946 14.854 44.9513 15.827 44.9513Z" fill="white"/>
<path d="M22.1838 31.2648C21.2108 31.3296 20.3676 30.9404 19.3297 30.9404C18.227 30.9404 17.9676 30.9404 17.2541 31.7837C17.0595 32.0431 16.9297 32.4323 17.1243 32.7566C17.3838 33.1458 18.8757 34.9621 18.746 35.2215C18.4865 35.7404 18.746 36.3891 19.3946 36.3891C20.4973 36.3891 21.6 36.3891 22.7676 36.3891C23.027 36.3891 23.3514 36.2594 23.4162 35.9999C24.0649 34.6377 24.7784 33.3404 25.6216 32.108C25.946 31.5891 25.5568 30.9404 24.973 30.9404C23.8054 30.9404 23.0919 31.0053 21.9892 31.3296C21.0162 31.5891 21.4703 33.1458 22.3784 32.8215C23.027 32.6269 23.027 32.4972 23.6757 32.4972C24.0649 32.4972 24.5189 32.4972 24.9081 32.4972C24.7135 32.108 24.4541 31.7188 24.2595 31.3296C23.4811 32.6269 22.7676 33.9242 22.0541 35.2215C22.2487 35.0918 22.5081 34.9621 22.7027 34.8323C21.6 34.8323 20.4973 34.8323 19.3297 34.8323C19.5243 35.2215 19.7838 35.6107 19.9784 35.9999C20.627 34.508 19.1351 33.1458 18.3568 31.9134C18.2919 32.2377 18.2919 32.5621 18.227 32.8864C18.6162 32.3675 18.0324 32.5621 18.6811 32.4972C19.0703 32.4323 19.5243 32.4323 19.8487 32.4972C20.4324 32.5621 21.146 32.8864 22.0541 32.8215C23.1568 32.7566 23.1568 31.1999 22.1838 31.2648Z" fill="white"/>
<path d="M14.7243 53.5783C16.8649 53.5783 19.0054 53.5783 21.1459 53.5783C21.5351 53.5783 21.9243 53.1891 21.9243 52.7999C21.8595 51.5026 21.8595 50.2053 21.9243 48.908C21.9243 48.5188 21.5351 48.1296 21.1459 48.1296C19.1351 48.1296 17.1892 48.1296 15.1784 48.1296C14.8541 48.1296 14.4649 48.3891 14.4 48.7134C14.2054 50.0756 14.0108 51.4378 13.8811 52.7999C13.7514 53.7729 15.3081 53.7729 15.4378 52.7999C15.5676 51.5675 15.6973 50.335 15.8919 49.1026C15.6324 49.2972 15.373 49.4918 15.1135 49.6864C17.1243 49.6864 19.0703 49.6864 21.0811 49.6864C20.8216 49.4269 20.5622 49.1675 20.3027 48.908C20.2378 50.2053 20.2378 51.5026 20.3027 52.7999C20.5622 52.5405 20.8216 52.281 21.0811 52.0215C18.9405 52.0215 16.8 52.0215 14.6595 52.0215C13.6865 52.0215 13.6865 53.5783 14.7243 53.5783Z" fill="white"/>
<path d="M0.908108 6.81076C1.88108 6.81076 2.72432 6.87563 3.63243 6.94049H3.6973C3.6973 6.94049 3.6973 6.94049 3.76216 6.94049C3.95676 6.94049 4.21622 6.94049 4.41081 7.00535L3.04865 8.04319C2.65946 8.36752 2.59459 8.9513 2.85405 9.34049C3.04865 9.59995 3.30811 9.72968 3.56757 9.72968C3.76216 9.72968 3.95676 9.66481 4.15135 9.53508L6.87568 7.39454C7.71892 7.58914 8.56216 7.78373 9.34054 7.97833L6.29189 9.72968C5.83784 9.98914 5.70811 10.5729 5.96757 11.027C6.16216 11.3513 6.48649 11.481 6.74595 11.481C6.87568 11.481 7.07027 11.4162 7.2 11.3513L11.6757 8.75671C12.1946 8.9513 12.7135 9.21076 13.2324 9.47022L7.97838 12.9081C7.52432 13.1675 7.39459 13.7513 7.71892 14.2054C7.91351 14.4648 8.17297 14.6594 8.4973 14.6594C8.69189 14.6594 8.82162 14.5945 9.01622 14.5297L15.1135 10.5729C15.6973 10.9621 16.2162 11.2864 16.6703 11.6756L8.69189 16.0216C8.23784 16.281 8.04324 16.8648 8.3027 17.3189C8.4973 17.6432 8.82162 17.8378 9.14595 17.8378C9.27568 17.8378 9.47027 17.7729 9.6 17.7081L18.227 13.0378C18.5514 13.3621 18.8757 13.6864 19.2 14.0756C19.2649 14.2054 19.3946 14.3351 19.5243 14.3999C19.6541 14.5297 19.7189 14.6594 19.7838 14.7243L13.5568 17.7729C13.1027 17.9675 12.9081 18.5513 13.1027 19.0054C13.2324 19.3297 13.6216 19.5243 13.9459 19.5243C14.0757 19.5243 14.2054 19.5243 14.3351 19.4594L20.8865 16.2162C20.9514 16.3459 21.0811 16.4756 21.1459 16.6702V16.7351C19.1351 16.9297 17.4486 18.1621 16.6054 19.9135L16.4108 19.7837C16.0216 19.4594 15.4378 19.5891 15.1135 19.9783C14.7892 20.3675 14.9189 20.9513 15.3081 21.2756L16.0865 21.8594C16.0865 21.9891 16.0865 22.1837 16.0865 22.3135C16.0865 22.5729 16.0865 22.8972 16.1514 23.1567L11.8703 20.1081C11.4811 19.7837 10.8973 19.9135 10.573 20.3027C10.2486 20.6918 10.3784 21.2756 10.7676 21.5999L16.7351 25.881C16.3459 26.2054 15.8919 26.5297 15.5027 26.854L10.2486 23.481C9.79459 23.2216 9.21081 23.3513 8.95135 23.7405C8.69189 24.1945 8.82162 24.7783 9.21081 25.0378L14.0757 28.1513C13.9459 28.3459 13.7514 28.4756 13.6216 28.6702H13.5568C13.3622 28.7351 13.2324 28.8648 13.1676 29.0594L9.01622 27.2432C8.56216 27.0486 7.97838 27.2432 7.78378 27.6972C7.58919 28.1513 7.78378 28.7351 8.23784 28.9297L12.1946 30.681C11.8703 31.1999 11.5459 31.7189 11.2216 32.3026L8.43243 31.1351C7.97838 30.9405 7.39459 31.1999 7.2 31.654C7.00541 32.1081 7.26486 32.6918 7.71892 32.8864L10.3784 33.9891C10.1838 34.4432 9.98919 34.8324 9.85946 35.2864L7.32973 34.8972C6.81081 34.8324 6.35676 35.1567 6.29189 35.6756C6.22703 36.1945 6.55135 36.6486 7.07027 36.7135L9.21081 37.0378C9.08108 37.4918 8.95135 37.9459 8.82162 38.4648L6.61622 38.7891C6.0973 38.9189 5.77297 39.3729 5.83784 39.8918C5.9027 40.3459 6.29189 40.7351 6.74595 40.7351C6.81081 40.7351 6.81081 40.7351 6.87568 40.7351L8.43243 40.5405C8.36757 40.9297 8.3027 41.3189 8.23784 41.7729C8.17297 42.2918 8.4973 42.7459 9.01622 42.8108C9.08108 42.8108 9.08108 42.8108 9.14595 42.8108C9.6 42.8108 9.98919 42.4864 10.0541 42.0324C10.1838 41.254 10.3135 40.4756 10.5081 39.7621C10.5081 39.6972 10.573 39.6324 10.573 39.5675C10.573 39.4378 10.6378 39.3729 10.6378 39.2432L11.2865 40.3459C11.4811 40.6702 11.8054 40.7999 12.0649 40.7999C12.1946 40.7999 12.3892 40.7351 12.5189 40.6702C12.973 40.4108 13.1027 39.827 12.8432 39.3729L11.2865 36.7135C11.4811 36.0648 11.7405 35.4162 12 34.8324L13.1027 37.6216C13.2324 38.0108 13.6216 38.2054 13.9459 38.2054C14.0757 38.2054 14.2054 38.2053 14.2703 38.1405C14.4 38.0756 14.4649 38.0756 14.5297 38.0108C11.6757 47.7405 11.6108 57.9243 11.6108 58.508C11.6108 59.3513 12.3243 60.0648 13.1676 60.0648H22.7027C23.1568 60.0648 23.6108 59.8702 23.8703 59.5459C24.1946 59.2216 24.3243 58.7675 24.2595 58.3135C22.573 47.3513 25.1676 37.8162 27.4378 32.1729C28.0865 32.0432 28.7351 31.7837 29.2541 31.3945C29.3838 31.654 29.5784 31.8486 29.9027 31.9135C29.9676 31.9135 30.0324 31.9135 30.0973 31.9135C30.5514 31.9135 30.8757 31.654 31.0054 31.1999L31.9784 27.0486C32.3676 26.9189 32.7568 26.7891 33.0811 26.5945C33.2108 26.6594 33.3405 26.7243 33.4703 26.854L31.3946 34.2486C31.2649 34.7675 31.5243 35.2864 32.0432 35.4162C32.1081 35.4162 32.2378 35.481 32.3027 35.481C32.6919 35.481 33.0811 35.2216 33.2108 34.7675L35.0919 27.8918C35.3513 28.1513 35.6757 28.3459 35.9351 28.6054L33.9892 33.9243C33.7946 34.3783 34.0541 34.9621 34.573 35.0918C34.7027 35.1567 34.7676 35.1567 34.8973 35.1567C35.2865 35.1567 35.6108 34.8972 35.8054 34.5729L37.427 30.1621C37.6216 30.4216 37.8162 30.6162 38.0108 30.8756L36.8432 34.7675C36.7135 35.2864 36.973 35.8054 37.4919 35.9351C37.5568 35.9351 37.6865 35.9999 37.7514 35.9999C38.1405 35.9999 38.5297 35.7405 38.6595 35.3513L39.373 33.0162C39.5676 33.4702 39.827 33.8594 40.0216 34.3135L38.9189 36.7783C38.7243 37.2324 38.9189 37.8162 39.373 38.0108C39.5027 38.0756 39.6324 38.0756 39.7622 38.0756C40.0865 38.0756 40.4757 37.881 40.6054 37.5567L40.9946 36.7783C40.9946 36.8432 41.0595 36.9081 41.0595 37.0378C41.2541 37.6864 41.4486 38.3351 41.5784 38.9837C41.7081 39.4378 42.0324 39.6972 42.4865 39.6972C42.5513 39.6972 42.6162 39.6972 42.6811 39.6972C43.2 39.5675 43.5243 39.0486 43.3946 38.5945C43.3297 38.2702 43.2649 37.9459 43.1351 37.6864L44.4324 37.7513C44.4324 37.7513 44.4324 37.7513 44.4973 37.7513C45.0162 37.7513 45.4054 37.3621 45.4054 36.8432C45.4054 36.3243 45.0162 35.8702 44.4973 35.8702L42.5513 35.8054C42.4216 35.4162 42.2919 35.0918 42.1622 34.7675L43.9784 34.3783C44.4973 34.2486 44.8216 33.7297 44.6919 33.2756C44.5622 32.7567 44.0432 32.4324 43.5892 32.5621L41.4486 33.081C41.2541 32.7567 41.1243 32.4324 40.9297 32.1081L43.1351 30.9405C43.5892 30.681 43.7838 30.1621 43.5243 29.7081C43.2649 29.254 42.7459 29.0594 42.2919 29.3189L39.9568 30.4864C39.6973 30.0972 39.373 29.6432 39.1135 29.3189L42.3568 27.5027C42.8108 27.2432 42.9405 26.6594 42.7459 26.2054C42.4865 25.7513 41.9027 25.6216 41.4486 25.8162L37.9459 27.7621C37.8162 27.6324 37.7514 27.5675 37.5568 27.5027H37.4919C37.3622 27.3729 37.2324 27.3081 37.1676 27.1783L41.1243 24.1297C41.5135 23.8054 41.5784 23.2216 41.3189 22.8324C40.9946 22.4432 40.4108 22.3783 40.0216 22.6378L35.6757 25.9459C35.4162 25.7513 35.0919 25.5567 34.8324 25.3621C34.9622 25.1675 35.0919 25.0378 35.2216 24.8432L39.5676 21.1459C39.9568 20.8216 40.0216 20.2378 39.6973 19.8486C39.373 19.4594 38.7892 19.3945 38.4 19.7189L36 21.4054C35.9351 18.3567 33.4703 15.9567 30.4216 15.9567C30.0973 15.9567 29.8378 15.9567 29.5135 16.0216C29.5784 15.827 29.6432 15.6972 29.773 15.5027C29.9027 15.3729 29.9676 15.2432 29.9676 15.1135C30.0324 14.9837 30.0973 14.854 30.1622 14.7243L36.4541 17.254C36.5838 17.3189 36.7135 17.3189 36.7784 17.3189C37.1676 17.3189 37.4919 17.1243 37.6216 16.7351C37.8162 16.281 37.5568 15.6972 37.1027 15.5027L31.0703 13.0378C31.1351 12.9729 31.2 12.8432 31.2649 12.7783C31.3946 12.6486 31.4595 12.5837 31.5243 12.3891C31.7838 12.0648 32.0432 11.7405 32.3676 11.4162L40.8649 15.3081C40.9946 15.3729 41.1243 15.3729 41.2541 15.3729C41.5784 15.3729 41.9676 15.1783 42.0973 14.854C42.2919 14.3999 42.0973 13.8162 41.6432 13.6216L33.9243 10.1189C34.3135 9.72968 34.7676 9.40535 35.2216 9.01617L41.1892 12.3243C41.3189 12.3891 41.5135 12.454 41.6432 12.454C41.9676 12.454 42.2919 12.2594 42.4865 11.9999C42.7459 11.5459 42.5513 10.9621 42.0973 10.7027L36.973 7.8486C37.3622 7.58914 37.8162 7.39454 38.2703 7.13508L42.6162 9.27563C42.7459 9.34049 42.8757 9.34049 43.0054 9.34049C43.3297 9.34049 43.6541 9.1459 43.8486 8.82157C44.0432 8.36752 43.9135 7.78373 43.3946 7.58914L40.4757 6.16211C41.1243 5.90265 41.8378 5.70806 42.6162 5.51346L45.3405 7.32968C45.4703 7.45941 45.6649 7.45941 45.8595 7.45941C46.1838 7.45941 46.4432 7.32968 46.6378 7.07022C46.8973 6.61617 46.8324 6.03238 46.3784 5.77292L45.1459 4.99454C46.1189 4.79995 47.1568 4.67022 48.2595 4.60536C48.7784 4.54049 49.1676 4.08644 49.1027 3.63238C49.0378 3.11346 48.5838 2.72427 48.1297 2.78914C47.6757 2.854 47.2216 2.854 46.7676 2.91887L47.0919 1.23238C47.2216 0.713464 46.8973 0.25941 46.3784 0.12968C45.8595 -4.93303e-05 45.4054 0.324275 45.2757 0.843194L44.8216 3.17833C44.3027 3.24319 43.7189 3.37292 43.2 3.50265L43.0054 1.16752C42.9405 0.648599 42.4865 0.25941 42.0324 0.324275C41.5135 0.38914 41.1243 0.843194 41.1892 1.29725L41.3838 3.89184C40.8649 4.02157 40.3459 4.21617 39.8919 4.41076L38.9189 1.49184C38.7243 0.972923 38.2054 0.713464 37.7514 0.908059C37.2324 1.10265 36.973 1.62157 37.1676 2.07563L38.2054 5.12427C37.5568 5.4486 36.973 5.70806 36.3892 6.03238L34.7676 1.68644C34.573 1.23238 34.0541 0.972924 33.6 1.10265C33.1459 1.29725 32.8865 1.81617 33.0162 2.27022L34.7027 6.87563C34.5081 6.94049 34.3784 7.07022 34.2486 7.26481C34.2486 7.26481 34.2486 7.32968 34.1838 7.32968C33.9892 7.52427 33.7297 7.654 33.5351 7.8486L30.6162 2.59454C30.3568 2.14049 29.773 2.01076 29.3189 2.20536C28.8649 2.39995 28.6703 3.0486 28.9297 3.50265L32.1081 9.27563C31.6541 9.72968 31.2649 10.1189 30.8757 10.5729L26.7892 3.95671C26.5297 3.50265 25.9459 3.37292 25.4919 3.63238C25.2324 3.76211 25.1027 4.02157 25.0378 4.28103C24.973 4.21617 24.9081 4.21617 24.9081 4.1513C24.4541 3.89184 23.8703 4.08644 23.6757 4.54049L19.7838 11.9351C19.3297 11.481 18.8757 11.027 18.3568 10.5729L21.2757 4.21617C21.4703 3.76211 21.2757 3.17833 20.8216 2.98373C20.3676 2.78914 19.7838 2.98373 19.5892 3.43779L16.8649 9.40535C16.6054 9.21076 16.3459 9.08103 16.0865 8.88644C16.0865 8.82157 16.0865 8.82157 16.0216 8.75671C15.8919 8.56211 15.6973 8.43238 15.5027 8.36752L16.9946 3.30806C17.1243 2.78914 16.8649 2.27022 16.3459 2.14049C15.827 2.01076 15.3081 2.27022 15.1784 2.78914L13.8162 7.52427C13.1676 7.19995 12.4541 6.87563 11.6757 6.61617L12.5189 3.24319C12.6486 2.72427 12.3243 2.20536 11.8703 2.07563C11.3514 1.9459 10.8324 2.27022 10.7027 2.72427L9.85946 5.96752C9.27567 5.77292 8.69189 5.64319 8.10811 5.51346V2.59454C8.10811 2.07563 7.71892 1.68644 7.2 1.68644C6.68108 1.68644 6.29189 2.07563 6.29189 2.59454V5.18914C5.64324 5.254 5.05946 5.18914 4.41081 5.12427L3.76216 2.59454C3.63243 2.14049 3.11351 1.81617 2.59459 1.9459C2.07568 2.07563 1.81622 2.59454 1.94595 3.11346L2.46486 4.99454C1.94595 4.92968 1.49189 4.92968 0.908108 4.92968C0.389189 4.92968 0 5.31887 0 5.83779C0 6.35671 0.389189 6.81076 0.908108 6.81076ZM28.0216 14.9837C27.7622 15.5027 27.5676 16.0216 27.373 16.4756L27.1135 16.0864L27.3081 15.6972C27.5676 15.2432 27.373 14.6594 26.9189 14.4648C26.6595 14.3351 26.3351 14.3351 26.0757 14.4648L25.6216 13.7513C25.427 13.427 25.1027 13.2972 24.7784 13.2972L25.7514 11.5459L28.0216 14.9837ZM23.9351 32.3675C23.4811 33.5351 23.0919 34.8324 22.7027 36.2594C22.3784 37.4918 22.0541 38.854 21.7297 40.281C21.4703 41.5135 21.2757 42.8108 21.0811 44.1729C20.8865 45.6648 20.7568 47.2864 20.6919 48.9081C20.627 50.2053 20.627 51.5026 20.6919 52.7999C20.7568 54.0972 20.8216 55.4594 21.0162 56.8216H14.9189C14.9838 55.8486 15.0486 54.4216 15.1784 52.7999C15.3081 51.6324 15.4378 50.2702 15.6324 48.9081C15.827 47.4162 16.0865 45.7945 16.4108 44.1729C16.6703 42.8756 16.9297 41.5783 17.3189 40.281C17.6432 38.9189 18.0973 37.6216 18.5514 36.2594C18.6162 35.9999 18.7459 35.7405 18.8108 35.481L19.0703 36.1945C19.0703 36.1945 19.0703 36.2594 19.1351 36.2594C19.2649 36.5837 19.5892 36.7783 19.9784 36.7783C20.1081 36.7783 20.173 36.7783 20.3027 36.7135C20.5622 36.6486 20.6919 36.454 20.8216 36.2594C20.9513 36.0648 20.9513 35.8054 20.8216 35.5459L19.8486 33.0162C19.9784 32.8216 20.0432 32.5621 20.173 32.3675C20.3676 31.9135 20.627 31.5243 20.8865 31.0702L21.2108 32.1081C21.2108 32.1729 21.2757 32.3027 21.3405 32.3675C21.5351 32.627 21.7946 32.7567 22.1189 32.7567C22.1838 32.7567 22.3135 32.7567 22.4432 32.6918C22.6378 32.627 22.7676 32.4972 22.8973 32.3675C23.0919 32.1081 23.1568 31.8486 23.027 31.5243L22.8324 30.9405C23.2865 31.2648 23.7405 31.5243 24.2595 31.7189C24.0649 31.9783 24 32.1729 23.9351 32.3675ZM21.7297 19.7837C22.7676 19.7837 23.6757 20.4324 24.0649 21.4054C22.6378 21.9891 21.4703 23.2216 20.9513 24.6486C19.9784 24.3243 19.2 23.4162 19.2 22.2486C19.2 20.8864 20.3027 19.7837 21.7297 19.7837ZM18.4865 26.854C18.8108 27.0486 19.1351 27.2432 19.4595 27.4378C19.0703 28.0216 18.6811 28.5405 18.3568 29.1243L17.7081 27.3729C17.9676 27.1783 18.227 26.9837 18.4865 26.854ZM16.2162 28.6702L17.1892 31.2648C16.9297 31.7189 16.7351 32.2378 16.5405 32.6918L15.1784 29.8378C15.5027 29.4486 15.827 29.0594 16.2162 28.6702ZM26.2054 29.0594C24.8432 29.0594 23.6757 27.9567 23.6757 26.5297C23.6757 25.1675 24.7784 23.9999 26.2054 23.9999C27.5676 23.9999 28.7351 25.1027 28.7351 26.5297C28.7351 27.9567 27.5676 29.0594 26.2054 29.0594ZM32.8865 21.5999C32.8865 22.7027 32.173 23.6108 31.2 23.9351C30.4865 22.6378 29.3189 21.6648 27.9568 21.2108C28.1514 19.9783 29.1892 19.0702 30.4216 19.0702C31.7838 19.0702 32.8865 20.1729 32.8865 21.5999ZM24.0649 14.7243L24.973 16.2162L24.3892 17.3189C24.0649 17.1243 23.7405 16.9945 23.4162 16.9297C23.3513 16.7351 23.2216 16.6054 23.0919 16.4108L24.0649 14.7243ZM14.9189 36.8432L13.1676 32.5621C13.3622 32.1729 13.6216 31.7837 13.8811 31.4594L15.5676 35.0918C15.373 35.6756 15.1135 36.3243 14.9189 36.9729C14.9838 36.9081 14.9189 36.9081 14.9189 36.8432ZM25.2973 5.4486C25.3622 5.38373 25.3622 5.254 25.3622 5.18914L29.6432 12.1297C29.3838 12.454 29.1892 12.8432 28.9946 13.1675L26.0757 8.69184C25.8162 8.23779 25.2324 8.10806 24.7784 8.43238C24.3243 8.69184 24.1946 9.27563 24.5189 9.72968L24.5838 9.85941L21.9243 14.6594C21.6649 14.2702 21.3405 13.881 21.0811 13.5567L25.2973 5.4486Z" fill="white"/>
</svg>
